<svg width="267" height="223" viewBox="0 0 267 223" fill="none" xmlns="http://www.w3.org/2000/svg">
<path d="M145.505 81.2273C159.871 101.744 167.487 123.706 168.466 142.412C169.45 161.229 163.762 175.673 152.962 183.235C142.162 190.797 126.644 191.202 109.299 183.841C92.0555 176.524 74.0226 161.855 59.6568 141.339C45.2909 120.822 37.6747 98.86 36.6961 80.1536C35.7118 61.3367 41.3997 46.8934 52.1996 39.3313C62.9995 31.7691 78.5172 31.364 95.8626 38.7248C113.106 46.0423 131.139 60.7108 145.505 81.2273Z" stroke="#2E75FF" stroke-opacity="0.4" stroke-width="13.32"/>
<path d="M206.744 141.34C192.378 161.856 174.345 176.525 157.102 183.842C139.756 191.203 124.238 190.798 113.439 183.236C102.639 175.674 96.9507 161.23 97.935 142.414C98.9136 123.707 106.53 101.745 120.896 81.2284C135.262 60.7118 153.294 46.0434 170.538 38.7259C187.883 31.3651 203.401 31.7701 214.201 39.3323C225.001 46.8945 230.689 61.3378 229.704 80.1547C228.726 98.861 221.11 120.823 206.744 141.34Z" stroke="#2E75FF" stroke-width="13.32"/>
</svg>
